<?xml version="1.0" encoding="utf-8"?><svg width="24" height="24" fill="none" xmlns="http://www.w3.org/2000/svg" viewBox="0 0 24 24"><rect width="24" height="24" rx="2" fill="#CDA177"/><g clip-path="url(#kclip0_615_2170)"><path d="M10.278 14.12l-.264 3.723c.378 0 .542-.162.739-.358l1.775-1.696 3.679 2.694c.674.376 1.15.178 1.332-.621l2.414-11.315h.001c.214-.998-.36-1.388-1.018-1.143L4.743 10.838c-.969.376-.954.916-.165 1.16l3.629 1.13 8.428-5.275c.397-.262.758-.117.461.146l-6.818 6.122z" fill="#fff"/></g><defs><clipPath id="kclip0_615_2170"><path fill="#fff" transform="translate(4 4)" d="M0 0h16v16H0z"/></clipPath></defs></svg>