<?xml version="1.0" encoding="utf-8"?><svg width="16" height="16" fill="none" xmlns="http://www.w3.org/2000/svg" viewBox="0 0 16 16"><path d="M2.176 14.73s-.014.358.335.358l4.033-.004.006-3.305s-.057-.545.472-.545h1.673c.626 0 .587.545.587.545l-.007 3.294h3.948c.444 0 .423-.445.423-.445V8.535l-5.563-4.95-5.907 4.95v6.196z" fill="#CDA177"/><path d="M0 8.074s.502.925 1.595 0l6.536-5.53L14.26 8.04c1.266.913 1.74 0 1.74 0L8.131.912 0 8.074zM14.111 2.531h-1.576l.007 1.912 1.57 1.331V2.531z" fill="#CDA177"/></svg>