<?xml version="1.0" encoding="utf-8"?><svg width="64" height="65" fill="none" xmlns="http://www.w3.org/2000/svg" viewBox="0 0 64 65"><path d="M29 45.124a.75.75 0 00-.75.75v.456a.75.75 0 101.5 0v-.456a.75.75 0 00-.75-.75zM29 48.001a.75.75 0 00-.75.75v8.48a.75.75 0 101.5 0v-8.48a.75.75 0 00-.75-.75zM42.936 12.56c-.54-.628-1.099-1.277-1.921-1.537-.876-.277-1.735-.027-2.492.192-.45.131-.875.254-1.231.249-.376-.007-.83-.147-1.31-.296-.776-.24-1.655-.513-2.492-.26a.748.748 0 00-.365 1.192.751.751 0 00.797.244c.399-.12 1.017.071 1.615.257.56.173 1.139.352 1.729.362.581.012 1.138-.151 1.676-.308.606-.176 1.178-.342 1.622-.202.415.13.813.594 1.234 1.084l.04.046a.753.753 0 001.058.08.75.75 0 00.08-1.058l-.04-.045zM16.907 17.682a.75.75 0 00-.483-1.42l-.058.02c-.784.266-1.595.541-2.143 1.207-.583.71-.672 1.6-.751 2.383-.047.467-.091.908-.23 1.236-.146.346-.446.715-.764 1.105-.512.63-1.093 1.343-1.172 2.214a.749.749 0 001.254.621.75.75 0 00.24-.485c.038-.415.447-.917.842-1.403.37-.455.753-.925.982-1.468.227-.537.285-1.113.34-1.67.063-.628.123-1.221.419-1.58.276-.336.854-.533 1.466-.74l.058-.02zM19.908 25.621a.75.75 0 00-.986.39c-.232.535-.294 1.11-.355 1.668-.068.627-.133 1.22-.43 1.576-.28.334-.86.525-1.474.728l-.058.02a.75.75 0 10.471 1.423l.058-.018c.786-.26 1.6-.53 2.153-1.19.59-.706.686-1.594.771-2.377.051-.467.099-.907.24-1.233a.75.75 0 00-.39-.987zM33.32 20.625c-.534-.232-1.11-.294-1.666-.355-.628-.068-1.22-.132-1.577-.43-.334-.28-.525-.86-.728-1.474l-.02-.058a.75.75 0 10-1.423.471l.018.057c.26.787.529 1.6 1.19 2.154.706.59 1.594.686 2.377.772.467.05.907.098 1.234.24a.75.75 0 00.596-1.377z" fill="#393939"/><path d="M56.986 17.175c-.091-.59.019-1.282.135-2.016.18-1.14.386-2.434-.22-3.56-.588-1.094-1.753-1.708-2.879-2.301-.727-.384-1.414-.745-1.883-1.198-.448-.433-.798-1.07-1.17-1.746-.566-1.031-1.21-2.2-2.374-2.807-1.094-.57-2.373-.473-3.61-.38-.845.064-1.642.124-2.333-.02-.69-.145-1.397-.52-2.145-.916-1.096-.58-2.227-1.182-3.46-1.098-1.31.089-2.368.902-3.3 1.62-.611.47-1.188.914-1.772 1.13-.61.228-1.385.284-2.204.344-.37.027-.742.055-1.11.099a48.81 48.81 0 01-.883-.248c-1.535-.444-3.123-.903-4.618-.483-1.594.448-2.663 1.694-3.696 2.9-.67.782-1.304 1.521-2.027 1.976-.754.475-1.75.76-2.805 1.062-1.575.451-3.203.918-4.208 2.112-1.03 1.225-1.11 2.83-1.185 4.381-.05.994-.095 1.933-.384 2.701-.275.732-.854 1.474-1.467 2.26-1 1.28-2.032 2.604-2.032 4.227 0 1.623 1.033 2.947 2.032 4.228.613.785 1.192 1.527 1.467 2.259.289.769.335 1.707.383 2.701.077 1.552.155 3.157 1.186 4.382 1.005 1.194 2.633 1.66 4.208 2.11 1.055.303 2.051.588 2.804 1.063.724.456 1.357 1.195 2.028 1.977 1.034 1.206 2.102 2.452 3.696 2.9.413.112.84.168 1.268.164a7.46 7.46 0 001.402-.147l.179 9.035a30.798 30.798 0 01-.191 3.873l-.094.83-.005.085c0 1.795 2.254 3.202 5.13 3.202 2.877 0 5.13-1.407 5.13-3.202l-.307-5.447a30.973 30.973 0 01-.043-2.37l.126-6.027a7.581 7.581 0 001.512.17c.43.003.857-.053 1.271-.166 1.594-.448 2.663-1.694 3.696-2.9.671-.782 1.305-1.521 2.028-1.976.753-.475 1.75-.76 2.805-1.063 1.575-.451 3.202-.917 4.207-2.111 1.03-1.225 1.11-2.83 1.186-4.382.044-.905.088-1.763.314-2.49.892-.793 1.205-1.989 1.482-3.05.188-.718.365-1.397.684-1.9.304-.48.84-.934 1.409-1.414.922-.78 1.966-1.663 2.232-2.932.265-1.27-.338-2.497-.87-3.58-.328-.669-.638-1.3-.725-1.86zM34.375 41.071l-.246 11.754a32.53 32.53 0 00.045 2.487l.305 5.379c-.022.799-1.567 1.685-3.63 1.685-2.048 0-3.586-.873-3.629-1.668l.088-.78a32.27 32.27 0 00.2-4.067l-.216-10.96a5.598 5.598 0 00-2.029-4.206l-5.77-4.776c.65-.271 1.292-.611 1.8-1.134l4.35 2.078a1.447 1.447 0 002.07-1.315l-.042-2.926c.16-.042.316-.087.468-.131.449-.13.878-.252 1.229-.249l.794 3.238a1.43 1.43 0 001.133 1.075 1.428 1.428 0 001.45-.583l5.053-7.117a5.29 5.29 0 011.281-.225l.047.001-2.868 5.307a15.766 15.766 0 00-1.883 7.133zm-3.367-8.433c.468.156.955.244 1.448.261.236.002.471-.03.698-.096l-1.564 2.203-.582-2.368zm26.104-10.33c-.16.764-.923 1.41-1.732 2.094-.63.532-1.28 1.082-1.706 1.755-.446.702-.661 1.527-.87 2.326-.254.975-.494 1.895-1.102 2.372-.617.485-1.65.56-2.743.64-.888.064-1.806.131-2.618.433a.75.75 0 10.523 1.406c.61-.227 1.385-.284 2.204-.343a12.88 12.88 0 002.01-.254 21.698 21.698 0 00-.117 1.592c-.067 1.363-.13 2.65-.835 3.489-.71.843-2.052 1.228-3.472 1.635-1.11.318-2.257.646-3.191 1.234-.915.576-1.654 1.438-2.368 2.27-.929 1.084-1.806 2.107-2.962 2.432-.714.2-1.533.099-2.346-.088l.087-4.199a14.26 14.26 0 011.704-6.452l3.1-5.735.351.1c1.081.315 2.306.67 3.509.291 1.128-.356 1.928-1.286 2.701-2.185.524-.608 1.018-1.183 1.575-1.548a.751.751 0 10-.821-1.255c-.735.48-1.323 1.164-1.892 1.825-.665.774-1.294 1.505-2.015 1.733-.77.242-1.678-.021-2.639-.3-.777-.226-1.579-.46-2.395-.446-.828.015-1.668.275-2.48.526-.991.307-1.927.597-2.631.386a.75.75 0 00-.432 1.436c.315.093.642.139.97.136a5.212 5.212 0 001.02-.112l-1.796 2.528a.748.748 0 00-.964-.668c-.398.12-1.017-.071-1.615-.257-.56-.173-1.139-.352-1.729-.362-.58-.01-1.138.151-1.676.307-.606.176-1.179.342-1.622.203-.415-.13-.813-.594-1.235-1.084l-.04-.047a.75.75 0 10-1.137.979l.04.046c.54.628 1.098 1.277 1.92 1.537.172.053.348.089.527.106l.037 2.677-4.127-1.97c.274-.76.341-1.608.406-2.436l.042-.519a.75.75 0 10-1.494-.134c-.016.179-.03.358-.044.537-.079 1.017-.154 1.979-.601 2.588-.477.651-1.365.975-2.306 1.318-.76.277-1.547.564-2.195 1.057a.749.749 0 10.908 1.194 4.675 4.675 0 011.08-.57l6.428 5.318a4.099 4.099 0 011.486 3.08l.008.396c-.75.164-1.546.256-2.235.063-1.156-.325-2.033-1.348-2.962-2.431-.714-.833-1.453-1.694-2.368-2.27-.934-.588-2.08-.917-3.19-1.235-1.421-.407-2.763-.79-3.473-1.635-.705-.837-.768-2.125-.835-3.489-.053-1.065-.107-2.167-.478-3.155-.355-.946-1.033-1.815-1.688-2.655-.882-1.13-1.715-2.198-1.715-3.304 0-1.107.833-2.175 1.715-3.305.655-.84 1.333-1.709 1.688-2.655.371-.988.425-2.09.478-3.155.067-1.363.13-2.651.835-3.49.71-.843 2.052-1.227 3.473-1.634 1.11-.318 2.256-.647 3.19-1.235.916-.576 1.654-1.437 2.368-2.27.929-1.083 1.806-2.106 2.962-2.431.775-.218 1.672-.085 2.63.156-.994.79-1.323 2.05-1.613 3.16-.187.72-.364 1.398-.684 1.902-.303.479-.84.933-1.408 1.413-.922.78-1.966 1.664-2.232 2.933-.265 1.269.338 2.496.87 3.58.328.668.638 1.299.725 1.86.091.589-.019 1.282-.135 2.015-.18 1.141-.385 2.435.22 3.56.588 1.095 1.753 1.708 2.88 2.302.726.383 1.413.745 1.882 1.198a.75.75 0 101.042-1.08c-.623-.6-1.438-1.03-2.225-1.445-.97-.511-1.886-.994-2.258-1.684-.366-.681-.217-1.621-.059-2.616.13-.815.262-1.658.136-2.48-.122-.787-.497-1.552-.86-2.291-.467-.95-.909-1.849-.749-2.613.16-.764.924-1.41 1.732-2.094.629-.532 1.28-1.082 1.706-1.755.445-.701.66-1.527.87-2.326.253-.975.494-1.896 1.102-2.373.616-.483 1.65-.559 2.743-.639.888-.064 1.806-.131 2.618-.433.796-.296 1.49-.83 2.163-1.348.838-.645 1.63-1.254 2.487-1.312.805-.055 1.704.422 2.657.927.807.428 1.641.87 2.54 1.058.899.188 1.84.117 2.751.049 1.075-.081 2.091-.158 2.806.214.762.397 1.243 1.272 1.753 2.2.409.742.831 1.511 1.442 2.101.623.601 1.438 1.03 2.225 1.446.97.511 1.886.994 2.258 1.685.365.68.217 1.62.059 2.615-.13.815-.263 1.658-.136 2.48.122.787.497 1.552.86 2.291.468.95.909 1.848.75 2.612z" fill="#393939"/></svg>