<?xml version="1.0" encoding="utf-8"?><svg width="48" height="63" fill="none" xmlns="http://www.w3.org/2000/svg" viewBox="0 0 48 63"><path d="M43.256 12.22a.75.75 0 00-.254-.422L29.227.299A.75.75 0 0028.3.273L16.697 8.88l-11.41 4.84a.75.75 0 00-.448.576L.699 41.242a.75.75 0 00.018.314l4.102 14.82a.75.75 0 00.387.47l11.881 5.95c.13.065.274.091.418.075l20.482-2.24a.75.75 0 00.56-.355l6.535-10.736a.747.747 0 00.104-.3l2.118-17.46a.753.753 0 00-.01-.244L43.256 12.22zm2.237 18.032l-8.58-4.694 5.322-10.89 3.258 15.584zm-16-27.777L41.59 12.572 35.87 24.21l-6.4-12.067.022-9.667zM43.25 48.077l-22.298-5.604-5.506-7.012 20.02-8.602 7.784 21.218zM28.492 13.535l6.33 11.967-19.76 8.49.476-9.579 12.954-10.878zm-.498-11.167l-.022 9.009-9.162-2.196 9.184-6.813zm-10.857 7.955L27.1 12.71 14.862 23.005l-7.987-8.329 10.262-4.353zM6.09 16.03l7.951 8.295-.514 10.35-11.129 5.384L6.09 16.03zM2.33 41.76l11.707-5.665 5.724 7.29-.412 10.442-13.255 1.53L2.33 41.76zM17.56 61.355l-9.433-4.723 11.877-1.371 14.163 4.28-16.607 1.814zM37.567 59l-16.722-5.052.389-9.858 22.038 5.54L37.567 59zm6.505-13.034L37.29 27.473l8.465 4.63-1.682 13.863z" fill="#393939"/></svg>