<?xml version="1.0" encoding="utf-8"?><svg width="16" height="16" fill="none" xmlns="http://www.w3.org/2000/svg" viewBox="0 0 16 16"><path d="M5.285 2.141h-.142a.143.143 0 00.142-.143v.143h5.429v-.143c0 .079.064.143.143.143h-.143v1.286H12V1.998c0-.63-.513-1.143-1.143-1.143H5.143C4.513.855 4 1.368 4 1.998v1.429h1.285V2.14zm9 1.286H1.714a.57.57 0 00-.571.571v.572c0 .078.064.143.142.143h1.079l.441 9.339c.029.609.532 1.09 1.141 1.09h8.107c.611 0 1.113-.48 1.141-1.09l.441-9.34h1.079a.143.143 0 00.143-.142v-.572a.57.57 0 00-.572-.571zm-2.37 10.428H4.085l-.432-9.142h8.696l-.432 9.142z" fill="#CDA177"/></svg>