<?xml version="1.0" encoding="utf-8"?><svg width="24" height="24" fill="none" xmlns="http://www.w3.org/2000/svg" viewBox="0 0 24 24"><g clip-path="url(#uclip0_633_4491)" fill="#393939"><path d="M17.372 7.936c-.11-.3-.287-.57-.516-.793a2.133 2.133 0 00-.792-.515c-.243-.094-.608-.207-1.28-.237-.726-.033-.944-.04-2.784-.04-1.84 0-2.058.007-2.784.04-.672.03-1.037.143-1.28.237-.3.11-.57.287-.792.515a2.136 2.136 0 00-.516.793c-.094.243-.206.607-.237 1.28-.033.726-.04.944-.04 2.784 0 1.84.007 2.057.04 2.784.03.672.143 1.037.237 1.28.11.299.287.57.516.792.222.229.493.405.792.515.243.095.608.207 1.28.238.726.033.944.04 2.784.04 1.84 0 2.058-.007 2.784-.04.672-.03 1.037-.143 1.28-.238a2.282 2.282 0 001.308-1.307c.094-.243.206-.608.237-1.28.033-.727.04-.944.04-2.784 0-1.84-.007-2.058-.04-2.785-.03-.672-.143-1.036-.237-1.28zM12 15.538a3.538 3.538 0 110-7.077 3.538 3.538 0 010 7.077zm3.678-6.39a.827.827 0 110-1.654.827.827 0 010 1.654z"/><path d="M14.297 12a2.297 2.297 0 11-4.594 0 2.297 2.297 0 014.594 0z"/><path d="M22.27 0H1.73A1.73 1.73 0 000 1.73v20.54C0 23.224.775 24 1.73 24h20.54A1.73 1.73 0 0024 22.27V1.73A1.73 1.73 0 0022.27 0zm-3.42 14.84c-.034.734-.15 1.235-.321 1.674a3.524 3.524 0 01-2.015 2.015c-.439.17-.94.287-1.673.32-.735.034-.97.042-2.84.042-1.872 0-2.107-.008-2.842-.042-.733-.033-1.234-.15-1.672-.32a3.375 3.375 0 01-1.221-.795 3.377 3.377 0 01-.795-1.22c-.17-.439-.287-.94-.32-1.673-.034-.735-.042-.97-.042-2.841 0-1.871.008-2.106.042-2.84.033-.734.15-1.235.32-1.674.173-.46.444-.876.795-1.22.344-.35.76-.622 1.22-.795.439-.17.94-.287 1.673-.32.735-.034.97-.042 2.841-.042 1.871 0 2.106.008 2.84.042.734.033 1.235.15 1.674.32.46.173.876.444 1.22.795.35.344.622.76.795 1.22.17.439.287.94.32 1.673.034.735.042.97.042 2.841 0 1.871-.008 2.106-.042 2.84z"/></g><defs><clipPath id="uclip0_633_4491"><path fill="#fff" d="M0 0h24v24H0z"/></clipPath></defs></svg>