<?xml version="1.0" encoding="utf-8"?><svg width="64" height="64" fill="none" xmlns="http://www.w3.org/2000/svg" viewBox="0 0 64 64"><path d="M39.625 21h.134a.716.716 0 00.741-.718V17.25h1.494a2.714 2.714 0 002.756-2.697V4a2.758 2.758 0 00-2.756-2.75H22.006A2.759 2.759 0 0019.25 4v10.553a2.714 2.714 0 002.756 2.697H23.5v3.032a.715.715 0 00.741.718h.134l-9.698 40.827a.75.75 0 00.73.923h2.813a.75.75 0 00.73-.577l2.815-11.79 8.11 3.473V62a.723.723 0 00.719.75h2.813a.725.725 0 00.718-.75v-8.148l8.105-3.49 2.813 11.81a.759.759 0 00.738.578h2.812a.75.75 0 00.73-.924L39.625 21zm3.625-8.375h-6.259c.658-.875 1.044-2.113 1.044-3.367a6.04 6.04 0 00-.68-2.758h5.895v6.125zM20.75 4a1.256 1.256 0 011.256-1.25h19.988A1.257 1.257 0 0143.25 4v1h-6.999a6.023 6.023 0 00-8.502 0H20.75V4zm15.785 5.276a4.535 4.535 0 11-9.07-.001 4.535 4.535 0 019.07.001zM20.75 6.5h5.896a6.042 6.042 0 00-.68 2.758c0 1.255.385 2.492 1.043 3.367H20.75V6.5zm1.256 9.25c-.689 0-1.256-.508-1.256-1.197v-.428h7.717a6.015 6.015 0 007.066 0h7.717v.428c0 .69-.567 1.197-1.256 1.197H22.006zm-4.38 45.5h-1.27L25.916 21h1.275l-9.564 40.25zm12.25-9.026l-7.76-3.322.253-1.03 7.506 3.368v.984zm0-2.628l-7.162-3.21L28.737 21h1.138v28.596zm2.75 11.654h-1.25V21h1.25v40.25zM25 19.5v-2.25h14v2.25H25zM35.271 21l6.015 25.386-7.16 3.21V21h1.145zm-1.146 31.218v-.978l7.514-3.368.232 1.01-7.746 3.336zm12.249 9.032L36.814 21h1.27l9.56 40.25h-1.27z" fill="#393939"/><path d="M27.66 32.609a.75.75 0 00-.898.563l-.102.445a.75.75 0 001.462.335l.102-.444a.749.749 0 00-.563-.9zM27.018 35.413a.75.75 0 00-.9.564l-1.895 8.266a.75.75 0 001.462.335l1.896-8.265a.751.751 0 00-.563-.9zM32.75 8.5V6.421a.828.828 0 00-.85-.829 3.685 3.685 0 00.012 7.369H32a3.692 3.692 0 003.684-3.583.862.862 0 00-.505-.805.847.847 0 00-.324-.073H32.75zm-.803 2.948a2.202 2.202 0 01-2.132-2.125 2.157 2.157 0 011.435-2.1v1.974a.81.81 0 00.83.803h1.973a2.173 2.173 0 01-2.106 1.448z" fill="#393939"/></svg>