<?xml version="1.0" encoding="utf-8"?><svg width="17" height="16" fill="none" xmlns="http://www.w3.org/2000/svg" viewBox="0 0 17 16"><g clip-path="url(#wclip0_1301_169)" fill="#DFD1A7"><path d="M7.577 9.375C6.05 7.847 5.705 6.32 5.627 5.708a.548.548 0 01.158-.459l1.236-1.235a.552.552 0 00.078-.683L5.13.276a.552.552 0 00-.715-.201L1.257 1.563a.549.549 0 00-.303.548c.165 1.572.85 5.437 4.65 9.236 3.798 3.8 7.663 4.485 9.236 4.65a.549.549 0 00.548-.303l1.488-3.16a.552.552 0 00-.2-.713l-3.055-1.967a.552.552 0 00-.683.077l-1.236 1.236a.548.548 0 01-.459.157c-.611-.077-2.139-.422-3.666-1.95z"/><path d="M13.642 8.552A.552.552 0 0113.09 8a4.143 4.143 0 00-4.138-4.138.552.552 0 110-1.103A5.247 5.247 0 0114.193 8a.552.552 0 01-.551.552z"/><path d="M16.4 8.552A.552.552 0 0115.848 8a6.904 6.904 0 00-6.896-6.897.552.552 0 010-1.103 8.009 8.009 0 018 8 .552.552 0 01-.552.552z"/></g><defs><clipPath id="wclip0_1301_169"><path fill="#fff" transform="translate(.952)" d="M0 0h16v16H0z"/></clipPath></defs></svg>