<svg width="24" height="25" viewBox="0 0 24 25" fill="none" xmlns="http://www.w3.org/2000/svg">
<path d="M21.3191 19.678H2.68156C2.56103 19.678 2.4646 19.7744 2.4646 19.8923V21.4994C2.4646 21.6173 2.56103 21.7137 2.68156 21.7137H21.3191C21.4396 21.7137 21.536 21.6173 21.536 21.4994V19.8923C21.536 19.7744 21.4396 19.678 21.3191 19.678ZM11.8316 16.7048C11.8516 16.7304 11.8772 16.7511 11.9065 16.7654C11.9357 16.7796 11.9678 16.787 12.0003 16.787C12.0328 16.787 12.0649 16.7796 12.0942 16.7654C12.1234 16.7511 12.149 16.7304 12.1691 16.7048L15.1691 12.9093C15.2789 12.77 15.1798 12.5637 15.0003 12.5637H13.0155V3.49944C13.0155 3.38158 12.9191 3.28516 12.8012 3.28516H11.1941C11.0762 3.28516 10.9798 3.38158 10.9798 3.49944V12.561H9.00031C8.82085 12.561 8.72174 12.7673 8.83156 12.9066L11.8316 16.7048Z" fill="#393939"/>
</svg>
