<?xml version="1.0" encoding="utf-8"?><svg viewBox="0 0 364 740" xmlns="http://www.w3.org/2000/svg" xmlns:xlink="http://www.w3.org/1999/xlink"><style>:root>svg{display:none}:root>svg:target{display:block}</style><svg fill="none" viewBox="0 0 54 12" id="arrow-left" xmlns="http://www.w3.org/2000/svg"><path d="M53.947 6H.894m0 0l5.61 5.61M.894 6L6.504.39" stroke="#F2F2F2"/></svg><svg fill="none" viewBox="0 0 55 13" id="arrow-left-black" xmlns="http://www.w3.org/2000/svg"><path d="M54.053 6.61H1m0 0l5.61 5.61M1 6.61L6.61 1" stroke="#393939"/></svg><svg fill="none" viewBox="0 0 55 12" id="arrow-right" xmlns="http://www.w3.org/2000/svg"><path d="M.947 6H54m0 0L48.39.39M54 6l-5.61 5.61" stroke="#F2F2F2"/></svg><svg fill="none" viewBox="0 0 54 13" id="arrow-right-black" xmlns="http://www.w3.org/2000/svg"><path d="M.053 6.61h53.053m0 0L47.496 1m5.61 5.61l-5.61 5.61" stroke="#393939"/></svg><svg class="etypes__link-icon" viewBox="0 0 60 61" id="circle-arrow" xmlns="http://www.w3.org/2000/svg"><path d="M26.75 24l6.5 6.5-6.5 6.5"/><rect x=".5" y="1" width="59" height="59" rx="29.5"/></svg><svg fill="none" viewBox="0 0 24 24" id="contacts-fb" xmlns="http://www.w3.org/2000/svg"><g clip-path="url(#fclip0_615_2163)"><path d="M22.27 0H1.73A1.73 1.73 0 000 1.73v20.54C0 23.224.775 24 1.73 24h11.09v-9.281H9.703v-3.633h3.117V8.412c0-3.1 1.893-4.787 4.659-4.787 1.324 0 2.463.098 2.794.142v3.24h-1.907c-1.504 0-1.796.716-1.796 1.765v2.314h3.598l-.469 3.633H16.57V24h5.7A1.73 1.73 0 0024 22.27V1.73A1.73 1.73 0 0022.27 0z" fill="#CDA177"/></g><defs><clipPath id="fclip0_615_2163"><path fill="#fff" d="M0 0h24v24H0z"/></clipPath></defs></svg><svg fill="none" viewBox="0 0 16 16" id="contacts-home" xmlns="http://www.w3.org/2000/svg"><path d="M2.176 14.73s-.014.358.335.358l4.033-.004.006-3.305s-.057-.545.472-.545h1.673c.626 0 .587.545.587.545l-.007 3.294h3.948c.444 0 .423-.445.423-.445V8.535l-5.563-4.95-5.907 4.95v6.196z" fill="#CDA177"/><path d="M0 8.074s.502.925 1.595 0l6.536-5.53L14.26 8.04c1.266.913 1.74 0 1.74 0L8.131.912 0 8.074zM14.111 2.531h-1.576l.007 1.912 1.57 1.331V2.531z" fill="#CDA177"/></svg><svg fill="none" viewBox="0 0 24 24" id="contacts-inst" xmlns="http://www.w3.org/2000/svg"><g clip-path="url(#hclip0_615_2165)" fill="#CDA177"><path d="M17.372 7.936c-.11-.3-.286-.57-.515-.793a2.133 2.133 0 00-.792-.515c-.243-.094-.608-.207-1.28-.237-.726-.033-.944-.04-2.784-.04-1.84 0-2.058.007-2.785.04-.672.03-1.036.143-1.28.237-.298.11-.57.287-.791.515a2.136 2.136 0 00-.516.793c-.094.243-.207.607-.237 1.28-.033.726-.04.944-.04 2.784 0 1.84.007 2.057.04 2.784.03.672.143 1.037.237 1.28.11.299.287.57.515.792.223.229.493.405.793.515.243.095.607.207 1.28.238.726.033.944.04 2.784.04 1.84 0 2.058-.007 2.784-.04.672-.03 1.037-.143 1.28-.238a2.282 2.282 0 001.307-1.307c.095-.243.207-.608.238-1.28.033-.727.04-.944.04-2.784 0-1.84-.007-2.058-.04-2.785-.031-.672-.143-1.036-.238-1.28zm-5.371 7.602a3.538 3.538 0 110-7.077 3.538 3.538 0 010 7.077zm3.678-6.39a.827.827 0 110-1.654.827.827 0 010 1.654z"/><path d="M14.297 12a2.297 2.297 0 11-4.594 0 2.297 2.297 0 014.594 0z"/><path d="M22.27 0H1.73A1.73 1.73 0 000 1.73v20.54C0 23.224.775 24 1.73 24h20.54A1.73 1.73 0 0024 22.27V1.73A1.73 1.73 0 0022.27 0zm-3.42 14.84c-.034.734-.15 1.235-.321 1.674a3.524 3.524 0 01-2.015 2.015c-.439.17-.94.287-1.673.32-.735.034-.97.042-2.84.042-1.872 0-2.107-.008-2.842-.042-.733-.033-1.234-.15-1.672-.32a3.375 3.375 0 01-1.221-.795 3.377 3.377 0 01-.795-1.22c-.17-.439-.287-.94-.32-1.673-.034-.735-.042-.97-.042-2.841 0-1.871.008-2.106.042-2.84.033-.734.15-1.235.32-1.674.173-.46.444-.876.795-1.22.344-.35.76-.622 1.22-.795.439-.17.94-.287 1.673-.32.735-.034.97-.042 2.841-.042 1.871 0 2.106.008 2.84.042.734.033 1.235.15 1.674.32.46.173.876.444 1.22.795.35.344.622.76.795 1.22.17.439.287.94.32 1.673.034.735.042.97.042 2.841 0 1.871-.008 2.106-.042 2.84z"/></g><defs><clipPath id="hclip0_615_2165"><path fill="#fff" d="M0 0h24v24H0z"/></clipPath></defs></svg><svg fill="none" viewBox="0 0 16 16" id="contacts-mail" xmlns="http://www.w3.org/2000/svg"><g clip-path="url(#iclip0_615_2133)" fill="#CDA177"><path d="M1.536 5.59c.202.143.812.567 1.83 1.272 1.018.705 1.798 1.249 2.34 1.63.059.041.185.132.379.272.193.14.354.253.482.34.128.085.283.182.464.29.182.106.353.187.514.24.16.054.31.08.446.08h.018c.137 0 .286-.026.446-.08.161-.053.332-.134.514-.24.181-.108.336-.205.464-.29.128-.087.289-.2.482-.34l.38-.273 4.178-2.901c.435-.304.798-.67 1.09-1.099.291-.428.437-.877.437-1.348 0-.392-.141-.729-.424-1.009a1.38 1.38 0 00-1.005-.42H1.43c-.459 0-.811.156-1.059.465-.247.31-.37.697-.37 1.16 0 .376.164.782.491 1.22.327.437.676.78 1.045 1.03z"/><path d="M15.107 6.545a185.599 185.599 0 00-4.446 3.08c-.34.25-.615.446-.826.585-.212.14-.493.283-.844.429a2.569 2.569 0 01-.982.219h-.018a2.57 2.57 0 01-.982-.219 5.1 5.1 0 01-.844-.428c-.211-.14-.486-.335-.826-.585-.803-.59-2.282-1.616-4.437-3.08A4.73 4.73 0 010 5.768v7.089c0 .393.14.729.42 1.009.28.28.616.42 1.009.42h13.143c.392 0 .729-.14 1.008-.42.28-.28.42-.616.42-1.01V5.77a4.922 4.922 0 01-.893.776z"/></g><defs><clipPath id="iclip0_615_2133"><path fill="#fff" d="M0 0h16v16H0z"/></clipPath></defs></svg><svg fill="none" viewBox="0 0 16 16" id="contacts-phone" xmlns="http://www.w3.org/2000/svg"><g clip-path="url(#jclip0_615_2143)" fill="#CDA177"><path d="M6.626 9.375C5.1 7.848 4.754 6.32 4.676 5.709a.548.548 0 01.158-.46L6.07 4.015a.552.552 0 00.078-.682L4.18.276a.552.552 0 00-.715-.201L.306 1.563a.549.549 0 00-.303.548c.165 1.572.85 5.438 4.65 9.236 3.798 3.8 7.663 4.485 9.236 4.65a.549.549 0 00.548-.303l1.488-3.16a.552.552 0 00-.2-.713L12.67 9.854a.552.552 0 00-.683.077l-1.235 1.236a.548.548 0 01-.46.158c-.611-.078-2.139-.423-3.666-1.95z"/><path d="M12.69 8.552A.552.552 0 0112.14 8 4.143 4.143 0 008 3.862.552.552 0 018 2.76 5.247 5.247 0 0113.242 8a.552.552 0 01-.551.552z"/><path d="M15.45 8.552A.552.552 0 0114.897 8 6.904 6.904 0 008 1.103.552.552 0 018 0a8.009 8.009 0 018 8 .552.552 0 01-.552.552z"/></g><defs><clipPath id="jclip0_615_2143"><path fill="#fff" d="M0 0h16v16H0z"/></clipPath></defs></svg><svg fill="none" viewBox="0 0 24 24" id="contacts-vk" xmlns="http://www.w3.org/2000/svg"><g clip-path="url(#kclip0_615_2164)"><path d="M22.47 0H1.534C.686 0 0 .686 0 1.531v20.938C0 23.314.686 24 1.533 24h20.936c.845 0 1.531-.686 1.531-1.531V1.531A1.528 1.528 0 0022.47 0zm-2.562 14.624c.439.447 1.39 1.198 1.218 1.961-.16.702-1.206.446-2.222.486-1.16.05-1.848.075-2.546-.486-.328-.265-.521-.58-.836-.933-.286-.318-.647-.889-1.138-.867-.883.044-.607 1.274-.92 2.112-4.905.772-6.874-2.257-8.612-5.198-.842-1.424-2.058-4.483-2.058-4.483l3.469-.011S7.376 9.228 7.67 9.75c.251.444.527.796.812 1.192.238.329.616.973 1.03.92.672-.086.794-2.695.377-3.568-.166-.354-.564-.478-.976-.598.14-.878 3.89-1.06 4.497-.38.88.99-.61 3.743.596 4.546 1.694-.887 3.14-4.603 3.14-4.603l4.061.025s-.635 2.009-1.3 2.9c-.388.521-1.675 1.683-1.625 2.545.041.683 1.088 1.347 1.626 1.895z" fill="#CDA177"/></g><defs><clipPath id="kclip0_615_2164"><path fill="#fff" d="M0 0h24v24H0z"/></clipPath></defs></svg><svg fill="none" viewBox="0 0 42 42" id="gray-circle-arrow" xmlns="http://www.w3.org/2000/svg"><rect width="42" height="42" rx="21" fill="#E5E5E5"/><path d="M10.815 21h20.371m0 0l-5.61-5.61m5.61 5.61l-5.61 5.61" stroke="#393939"/></svg><svg fill="none" viewBox="0 0 364 740" id="gray-logo" xmlns="http://www.w3.org/2000/svg"><g clip-path="url(#mclip0_615_1626)"><path opacity=".1" d="M363.284 693.404L33.09 363.832V245.639l330.194 329.572V205.827H330.19V330.24L-.004.42v46.406L330.19 376.647v119.064L-.004 166.139v369.259H33.09V410.985l330.194 329.074v-46.655z" fill="#393939"/></g><defs><clipPath id="mclip0_615_1626"><path fill="#fff" d="M0 0h363.288v739.639H0z"/></clipPath></defs></svg><svg fill="none" viewBox="0 0 16 16" id="icon-delete" xmlns="http://www.w3.org/2000/svg"><path d="M5.285 2.141h-.142a.143.143 0 00.142-.143v.143h5.429v-.143c0 .079.064.143.143.143h-.143v1.286H12V1.998c0-.63-.513-1.143-1.143-1.143H5.143C4.513.855 4 1.368 4 1.998v1.429h1.285V2.14zm9 1.286H1.714a.57.57 0 00-.571.571v.572c0 .078.064.143.142.143h1.079l.441 9.339c.029.609.532 1.09 1.141 1.09h8.107c.611 0 1.113-.48 1.141-1.09l.441-9.34h1.079a.143.143 0 00.143-.142v-.572a.57.57 0 00-.572-.571zm-2.37 10.428H4.085l-.432-9.142h8.696l-.432 9.142z" fill="#CDA177"/></svg><svg fill="none" viewBox="0 0 24 25" id="icon-download" xmlns="http://www.w3.org/2000/svg"><path d="M21.32 19.678H2.681a.215.215 0 00-.217.214V21.5c0 .118.096.215.217.215h18.637c.12 0 .217-.097.217-.215v-1.607a.215.215 0 00-.217-.214zm-9.488-2.973a.214.214 0 00.337 0l3-3.796a.214.214 0 00-.169-.345h-1.985V3.499a.215.215 0 00-.214-.214h-1.607a.215.215 0 00-.214.214v9.062H9a.214.214 0 00-.168.346l3 3.798z" fill="#393939"/></svg><svg fill="none" viewBox="0 0 64 65" id="icon-eco" xmlns="http://www.w3.org/2000/svg"><path d="M29 45.124a.75.75 0 00-.75.75v.456a.75.75 0 101.5 0v-.456a.75.75 0 00-.75-.75zM29 48.001a.75.75 0 00-.75.75v8.48a.75.75 0 101.5 0v-8.48a.75.75 0 00-.75-.75zM42.936 12.56c-.54-.628-1.099-1.277-1.921-1.537-.876-.277-1.735-.027-2.492.192-.45.131-.875.254-1.231.249-.376-.007-.83-.147-1.31-.296-.776-.24-1.655-.513-2.492-.26a.748.748 0 00-.365 1.192.751.751 0 00.797.244c.399-.12 1.017.071 1.615.257.56.173 1.139.352 1.729.362.581.012 1.138-.151 1.676-.308.606-.176 1.178-.342 1.622-.202.415.13.813.594 1.234 1.084l.04.046a.753.753 0 001.058.08.75.75 0 00.08-1.058l-.04-.045zM16.907 17.682a.75.75 0 00-.483-1.42l-.058.02c-.784.266-1.595.541-2.143 1.207-.583.71-.672 1.6-.751 2.383-.047.467-.091.908-.23 1.236-.146.346-.446.715-.764 1.105-.512.63-1.093 1.343-1.172 2.214a.749.749 0 001.254.621.75.75 0 00.24-.485c.038-.415.447-.917.842-1.403.37-.455.753-.925.982-1.468.227-.537.285-1.113.34-1.67.063-.628.123-1.221.419-1.58.276-.336.854-.533 1.466-.74l.058-.02zM19.908 25.621a.75.75 0 00-.986.39c-.232.535-.294 1.11-.355 1.668-.068.627-.133 1.22-.43 1.576-.28.334-.86.525-1.474.728l-.058.02a.75.75 0 10.471 1.423l.058-.018c.786-.26 1.6-.53 2.153-1.19.59-.706.686-1.594.771-2.377.051-.467.099-.907.24-1.233a.75.75 0 00-.39-.987zM33.32 20.625c-.534-.232-1.11-.294-1.666-.355-.628-.068-1.22-.132-1.577-.43-.334-.28-.525-.86-.728-1.474l-.02-.058a.75.75 0 10-1.423.471l.018.057c.26.787.529 1.6 1.19 2.154.706.59 1.594.686 2.377.772.467.05.907.098 1.234.24a.75.75 0 00.596-1.377z" fill="#393939"/><path d="M56.986 17.175c-.091-.59.019-1.282.135-2.016.18-1.14.386-2.434-.22-3.56-.588-1.094-1.753-1.708-2.879-2.301-.727-.384-1.414-.745-1.883-1.198-.448-.433-.798-1.07-1.17-1.746-.566-1.031-1.21-2.2-2.374-2.807-1.094-.57-2.373-.473-3.61-.38-.845.064-1.642.124-2.333-.02-.69-.145-1.397-.52-2.145-.916-1.096-.58-2.227-1.182-3.46-1.098-1.31.089-2.368.902-3.3 1.62-.611.47-1.188.914-1.772 1.13-.61.228-1.385.284-2.204.344-.37.027-.742.055-1.11.099a48.81 48.81 0 01-.883-.248c-1.535-.444-3.123-.903-4.618-.483-1.594.448-2.663 1.694-3.696 2.9-.67.782-1.304 1.521-2.027 1.976-.754.475-1.75.76-2.805 1.062-1.575.451-3.203.918-4.208 2.112-1.03 1.225-1.11 2.83-1.185 4.381-.05.994-.095 1.933-.384 2.701-.275.732-.854 1.474-1.467 2.26-1 1.28-2.032 2.604-2.032 4.227 0 1.623 1.033 2.947 2.032 4.228.613.785 1.192 1.527 1.467 2.259.289.769.335 1.707.383 2.701.077 1.552.155 3.157 1.186 4.382 1.005 1.194 2.633 1.66 4.208 2.11 1.055.303 2.051.588 2.804 1.063.724.456 1.357 1.195 2.028 1.977 1.034 1.206 2.102 2.452 3.696 2.9.413.112.84.168 1.268.164a7.46 7.46 0 001.402-.147l.179 9.035a30.798 30.798 0 01-.191 3.873l-.094.83-.005.085c0 1.795 2.254 3.202 5.13 3.202 2.877 0 5.13-1.407 5.13-3.202l-.307-5.447a30.973 30.973 0 01-.043-2.37l.126-6.027a7.581 7.581 0 001.512.17c.43.003.857-.053 1.271-.166 1.594-.448 2.663-1.694 3.696-2.9.671-.782 1.305-1.521 2.028-1.976.753-.475 1.75-.76 2.805-1.063 1.575-.451 3.202-.917 4.207-2.111 1.03-1.225 1.11-2.83 1.186-4.382.044-.905.088-1.763.314-2.49.892-.793 1.205-1.989 1.482-3.05.188-.718.365-1.397.684-1.9.304-.48.84-.934 1.409-1.414.922-.78 1.966-1.663 2.232-2.932.265-1.27-.338-2.497-.87-3.58-.328-.669-.638-1.3-.725-1.86zM34.375 41.071l-.246 11.754a32.53 32.53 0 00.045 2.487l.305 5.379c-.022.799-1.567 1.685-3.63 1.685-2.048 0-3.586-.873-3.629-1.668l.088-.78a32.27 32.27 0 00.2-4.067l-.216-10.96a5.598 5.598 0 00-2.029-4.206l-5.77-4.776c.65-.271 1.292-.611 1.8-1.134l4.35 2.078a1.447 1.447 0 002.07-1.315l-.042-2.926c.16-.042.316-.087.468-.131.449-.13.878-.252 1.229-.249l.794 3.238a1.43 1.43 0 001.133 1.075 1.428 1.428 0 001.45-.583l5.053-7.117a5.29 5.29 0 011.281-.225l.047.001-2.868 5.307a15.766 15.766 0 00-1.883 7.133zm-3.367-8.433c.468.156.955.244 1.448.261.236.002.471-.03.698-.096l-1.564 2.203-.582-2.368zm26.104-10.33c-.16.764-.923 1.41-1.732 2.094-.63.532-1.28 1.082-1.706 1.755-.446.702-.661 1.527-.87 2.326-.254.975-.494 1.895-1.102 2.372-.617.485-1.65.56-2.743.64-.888.064-1.806.131-2.618.433a.75.75 0 10.523 1.406c.61-.227 1.385-.284 2.204-.343a12.88 12.88 0 002.01-.254 21.698 21.698 0 00-.117 1.592c-.067 1.363-.13 2.65-.835 3.489-.71.843-2.052 1.228-3.472 1.635-1.11.318-2.257.646-3.191 1.234-.915.576-1.654 1.438-2.368 2.27-.929 1.084-1.806 2.107-2.962 2.432-.714.2-1.533.099-2.346-.088l.087-4.199a14.26 14.26 0 011.704-6.452l3.1-5.735.351.1c1.081.315 2.306.67 3.509.291 1.128-.356 1.928-1.286 2.701-2.185.524-.608 1.018-1.183 1.575-1.548a.751.751 0 10-.821-1.255c-.735.48-1.323 1.164-1.892 1.825-.665.774-1.294 1.505-2.015 1.733-.77.242-1.678-.021-2.639-.3-.777-.226-1.579-.46-2.395-.446-.828.015-1.668.275-2.48.526-.991.307-1.927.597-2.631.386a.75.75 0 00-.432 1.436c.315.093.642.139.97.136a5.212 5.212 0 001.02-.112l-1.796 2.528a.748.748 0 00-.964-.668c-.398.12-1.017-.071-1.615-.257-.56-.173-1.139-.352-1.729-.362-.58-.01-1.138.151-1.676.307-.606.176-1.179.342-1.622.203-.415-.13-.813-.594-1.235-1.084l-.04-.047a.75.75 0 10-1.137.979l.04.046c.54.628 1.098 1.277 1.92 1.537.172.053.348.089.527.106l.037 2.677-4.127-1.97c.274-.76.341-1.608.406-2.436l.042-.519a.75.75 0 10-1.494-.134c-.016.179-.03.358-.044.537-.079 1.017-.154 1.979-.601 2.588-.477.651-1.365.975-2.306 1.318-.76.277-1.547.564-2.195 1.057a.749.749 0 10.908 1.194 4.675 4.675 0 011.08-.57l6.428 5.318a4.099 4.099 0 011.486 3.08l.008.396c-.75.164-1.546.256-2.235.063-1.156-.325-2.033-1.348-2.962-2.431-.714-.833-1.453-1.694-2.368-2.27-.934-.588-2.08-.917-3.19-1.235-1.421-.407-2.763-.79-3.473-1.635-.705-.837-.768-2.125-.835-3.489-.053-1.065-.107-2.167-.478-3.155-.355-.946-1.033-1.815-1.688-2.655-.882-1.13-1.715-2.198-1.715-3.304 0-1.107.833-2.175 1.715-3.305.655-.84 1.333-1.709 1.688-2.655.371-.988.425-2.09.478-3.155.067-1.363.13-2.651.835-3.49.71-.843 2.052-1.227 3.473-1.634 1.11-.318 2.256-.647 3.19-1.235.916-.576 1.654-1.437 2.368-2.27.929-1.083 1.806-2.106 2.962-2.431.775-.218 1.672-.085 2.63.156-.994.79-1.323 2.05-1.613 3.16-.187.72-.364 1.398-.684 1.902-.303.479-.84.933-1.408 1.413-.922.78-1.966 1.664-2.232 2.933-.265 1.269.338 2.496.87 3.58.328.668.638 1.299.725 1.86.091.589-.019 1.282-.135 2.015-.18 1.141-.385 2.435.22 3.56.588 1.095 1.753 1.708 2.88 2.302.726.383 1.413.745 1.882 1.198a.75.75 0 101.042-1.08c-.623-.6-1.438-1.03-2.225-1.445-.97-.511-1.886-.994-2.258-1.684-.366-.681-.217-1.621-.059-2.616.13-.815.262-1.658.136-2.48-.122-.787-.497-1.552-.86-2.291-.467-.95-.909-1.849-.749-2.613.16-.764.924-1.41 1.732-2.094.629-.532 1.28-1.082 1.706-1.755.445-.701.66-1.527.87-2.326.253-.975.494-1.896 1.102-2.373.616-.483 1.65-.559 2.743-.639.888-.064 1.806-.131 2.618-.433.796-.296 1.49-.83 2.163-1.348.838-.645 1.63-1.254 2.487-1.312.805-.055 1.704.422 2.657.927.807.428 1.641.87 2.54 1.058.899.188 1.84.117 2.751.049 1.075-.081 2.091-.158 2.806.214.762.397 1.243 1.272 1.753 2.2.409.742.831 1.511 1.442 2.101.623.601 1.438 1.03 2.225 1.446.97.511 1.886.994 2.258 1.685.365.68.217 1.62.059 2.615-.13.815-.263 1.658-.136 2.48.122.787.497 1.552.86 2.291.468.95.909 1.848.75 2.612z" fill="#393939"/></svg><svg fill="none" viewBox="0 0 24 24" id="icon-fb" xmlns="http://www.w3.org/2000/svg"><g clip-path="url(#qclip0_633_4489)"><path d="M22.27 0H1.73A1.73 1.73 0 000 1.73v20.54C0 23.224.775 24 1.73 24h11.09v-9.281H9.703v-3.633h3.117V8.412c0-3.1 1.893-4.787 4.659-4.787 1.324 0 2.463.098 2.794.142v3.24h-1.907c-1.504 0-1.796.716-1.796 1.765v2.314h3.598l-.469 3.633H16.57V24h5.7A1.73 1.73 0 0024 22.27V1.73A1.73 1.73 0 0022.27 0z" fill="#393939"/></g><defs><clipPath id="qclip0_633_4489"><path fill="#fff" d="M0 0h24v24H0z"/></clipPath></defs></svg><svg fill="none" viewBox="0 0 48 63" id="icon-geo" xmlns="http://www.w3.org/2000/svg"><path d="M43.256 12.22a.75.75 0 00-.254-.422L29.227.299A.75.75 0 0028.3.273L16.697 8.88l-11.41 4.84a.75.75 0 00-.448.576L.699 41.242a.75.75 0 00.018.314l4.102 14.82a.75.75 0 00.387.47l11.881 5.95c.13.065.274.091.418.075l20.482-2.24a.75.75 0 00.56-.355l6.535-10.736a.747.747 0 00.104-.3l2.118-17.46a.753.753 0 00-.01-.244L43.256 12.22zm2.237 18.032l-8.58-4.694 5.322-10.89 3.258 15.584zm-16-27.777L41.59 12.572 35.87 24.21l-6.4-12.067.022-9.667zM43.25 48.077l-22.298-5.604-5.506-7.012 20.02-8.602 7.784 21.218zM28.492 13.535l6.33 11.967-19.76 8.49.476-9.579 12.954-10.878zm-.498-11.167l-.022 9.009-9.162-2.196 9.184-6.813zm-10.857 7.955L27.1 12.71 14.862 23.005l-7.987-8.329 10.262-4.353zM6.09 16.03l7.951 8.295-.514 10.35-11.129 5.384L6.09 16.03zM2.33 41.76l11.707-5.665 5.724 7.29-.412 10.442-13.255 1.53L2.33 41.76zM17.56 61.355l-9.433-4.723 11.877-1.371 14.163 4.28-16.607 1.814zM37.567 59l-16.722-5.052.389-9.858 22.038 5.54L37.567 59zm6.505-13.034L37.29 27.473l8.465 4.63-1.682 13.863z" fill="#393939"/></svg><svg fill="none" viewBox="0 0 24 24" id="icon-inst" xmlns="http://www.w3.org/2000/svg"><g clip-path="url(#sclip0_633_4491)" fill="#393939"><path d="M17.372 7.936c-.11-.3-.287-.57-.516-.793a2.133 2.133 0 00-.792-.515c-.243-.094-.608-.207-1.28-.237-.726-.033-.944-.04-2.784-.04-1.84 0-2.058.007-2.784.04-.672.03-1.037.143-1.28.237-.3.11-.57.287-.792.515a2.136 2.136 0 00-.516.793c-.094.243-.206.607-.237 1.28-.033.726-.04.944-.04 2.784 0 1.84.007 2.057.04 2.784.03.672.143 1.037.237 1.28.11.299.287.57.516.792.222.229.493.405.792.515.243.095.608.207 1.28.238.726.033.944.04 2.784.04 1.84 0 2.058-.007 2.784-.04.672-.03 1.037-.143 1.28-.238a2.282 2.282 0 001.308-1.307c.094-.243.206-.608.237-1.28.033-.727.04-.944.04-2.784 0-1.84-.007-2.058-.04-2.785-.03-.672-.143-1.036-.237-1.28zM12 15.538a3.538 3.538 0 110-7.077 3.538 3.538 0 010 7.077zm3.678-6.39a.827.827 0 110-1.654.827.827 0 010 1.654z"/><path d="M14.297 12a2.297 2.297 0 11-4.594 0 2.297 2.297 0 014.594 0z"/><path d="M22.27 0H1.73A1.73 1.73 0 000 1.73v20.54C0 23.224.775 24 1.73 24h20.54A1.73 1.73 0 0024 22.27V1.73A1.73 1.73 0 0022.27 0zm-3.42 14.84c-.034.734-.15 1.235-.321 1.674a3.524 3.524 0 01-2.015 2.015c-.439.17-.94.287-1.673.32-.735.034-.97.042-2.84.042-1.872 0-2.107-.008-2.842-.042-.733-.033-1.234-.15-1.672-.32a3.375 3.375 0 01-1.221-.795 3.377 3.377 0 01-.795-1.22c-.17-.439-.287-.94-.32-1.673-.034-.735-.042-.97-.042-2.841 0-1.871.008-2.106.042-2.84.033-.734.15-1.235.32-1.674.173-.46.444-.876.795-1.22.344-.35.76-.622 1.22-.795.439-.17.94-.287 1.673-.32.735-.034.97-.042 2.841-.042 1.871 0 2.106.008 2.84.042.734.033 1.235.15 1.674.32.46.173.876.444 1.22.795.35.344.622.76.795 1.22.17.439.287.94.32 1.673.034.735.042.97.042 2.841 0 1.871-.008 2.106-.042 2.84z"/></g><defs><clipPath id="sclip0_633_4491"><path fill="#fff" d="M0 0h24v24H0z"/></clipPath></defs></svg><svg fill="none" viewBox="0 0 64 64" id="icon-nevelir" xmlns="http://www.w3.org/2000/svg"><path d="M39.625 21h.134a.716.716 0 00.741-.718V17.25h1.494a2.714 2.714 0 002.756-2.697V4a2.758 2.758 0 00-2.756-2.75H22.006A2.759 2.759 0 0019.25 4v10.553a2.714 2.714 0 002.756 2.697H23.5v3.032a.715.715 0 00.741.718h.134l-9.698 40.827a.75.75 0 00.73.923h2.813a.75.75 0 00.73-.577l2.815-11.79 8.11 3.473V62a.723.723 0 00.719.75h2.813a.725.725 0 00.718-.75v-8.148l8.105-3.49 2.813 11.81a.759.759 0 00.738.578h2.812a.75.75 0 00.73-.924L39.625 21zm3.625-8.375h-6.259c.658-.875 1.044-2.113 1.044-3.367a6.04 6.04 0 00-.68-2.758h5.895v6.125zM20.75 4a1.256 1.256 0 011.256-1.25h19.988A1.257 1.257 0 0143.25 4v1h-6.999a6.023 6.023 0 00-8.502 0H20.75V4zm15.785 5.276a4.535 4.535 0 11-9.07-.001 4.535 4.535 0 019.07.001zM20.75 6.5h5.896a6.042 6.042 0 00-.68 2.758c0 1.255.385 2.492 1.043 3.367H20.75V6.5zm1.256 9.25c-.689 0-1.256-.508-1.256-1.197v-.428h7.717a6.015 6.015 0 007.066 0h7.717v.428c0 .69-.567 1.197-1.256 1.197H22.006zm-4.38 45.5h-1.27L25.916 21h1.275l-9.564 40.25zm12.25-9.026l-7.76-3.322.253-1.03 7.506 3.368v.984zm0-2.628l-7.162-3.21L28.737 21h1.138v28.596zm2.75 11.654h-1.25V21h1.25v40.25zM25 19.5v-2.25h14v2.25H25zM35.271 21l6.015 25.386-7.16 3.21V21h1.145zm-1.146 31.218v-.978l7.514-3.368.232 1.01-7.746 3.336zm12.249 9.032L36.814 21h1.27l9.56 40.25h-1.27z" fill="#393939"/><path d="M27.66 32.609a.75.75 0 00-.898.563l-.102.445a.75.75 0 001.462.335l.102-.444a.749.749 0 00-.563-.9zM27.018 35.413a.75.75 0 00-.9.564l-1.895 8.266a.75.75 0 001.462.335l1.896-8.265a.751.751 0 00-.563-.9zM32.75 8.5V6.421a.828.828 0 00-.85-.829 3.685 3.685 0 00.012 7.369H32a3.692 3.692 0 003.684-3.583.862.862 0 00-.505-.805.847.847 0 00-.324-.073H32.75zm-.803 2.948a2.202 2.202 0 01-2.132-2.125 2.157 2.157 0 011.435-2.1v1.974a.81.81 0 00.83.803h1.973a2.173 2.173 0 01-2.106 1.448z" fill="#393939"/></svg><svg fill="none" viewBox="0 0 24 24" id="icon-vk" xmlns="http://www.w3.org/2000/svg"><g clip-path="url(#uclip0_633_4490)"><path d="M22.47 0H1.534C.686 0 0 .686 0 1.531v20.938C0 23.314.686 24 1.533 24h20.936c.845 0 1.531-.686 1.531-1.531V1.531A1.528 1.528 0 0022.47 0zm-2.562 14.624c.439.447 1.39 1.198 1.218 1.961-.16.702-1.206.446-2.222.486-1.16.05-1.848.075-2.546-.486-.328-.265-.521-.58-.836-.933-.286-.318-.647-.889-1.138-.867-.883.044-.607 1.274-.92 2.112-4.905.772-6.874-2.257-8.612-5.198-.842-1.424-2.058-4.483-2.058-4.483l3.469-.011S7.376 9.228 7.67 9.75c.251.444.527.796.812 1.192.238.329.616.973 1.03.92.672-.086.794-2.695.377-3.568-.166-.354-.564-.478-.976-.598.14-.878 3.89-1.06 4.497-.38.88.99-.61 3.743.596 4.546 1.694-.887 3.14-4.603 3.14-4.603l4.061.025s-.635 2.009-1.3 2.9c-.388.521-1.675 1.683-1.625 2.545.041.683 1.088 1.347 1.626 1.895z" fill="#393939"/></g><defs><clipPath id="uclip0_633_4490"><path fill="#fff" d="M0 0h24v24H0z"/></clipPath></defs></svg><svg fill="none" viewBox="0 0 24 25" id="phone-black" xmlns="http://www.w3.org/2000/svg"><path d="M22 17.42v3a2.001 2.001 0 01-2.18 2 19.79 19.79 0 01-8.63-3.07 19.499 19.499 0 01-6-6 19.79 19.79 0 01-3.07-8.67A2 2 0 014.11 2.5h3a2 2 0 012 1.72c.127.96.362 1.903.7 2.81a2 2 0 01-.45 2.11l-1.27 1.27a16 16 0 006 6l1.27-1.27a1.999 1.999 0 012.11-.45c.907.339 1.85.574 2.81.7A2 2 0 0122 17.42z" stroke="#000" stroke-width="2" stroke-linecap="round" stroke-linejoin="round"/></svg><svg fill="none" viewBox="0 0 17 16" id="phone-call" xmlns="http://www.w3.org/2000/svg"><g clip-path="url(#wclip0_1301_169)" fill="#DFD1A7"><path d="M7.577 9.375C6.05 7.847 5.705 6.32 5.627 5.708a.548.548 0 01.158-.459l1.236-1.235a.552.552 0 00.078-.683L5.13.276a.552.552 0 00-.715-.201L1.257 1.563a.549.549 0 00-.303.548c.165 1.572.85 5.437 4.65 9.236 3.798 3.8 7.663 4.485 9.236 4.65a.549.549 0 00.548-.303l1.488-3.16a.552.552 0 00-.2-.713l-3.055-1.967a.552.552 0 00-.683.077l-1.236 1.236a.548.548 0 01-.459.157c-.611-.077-2.139-.422-3.666-1.95z"/><path d="M13.642 8.552A.552.552 0 0113.09 8a4.143 4.143 0 00-4.138-4.138.552.552 0 110-1.103A5.247 5.247 0 0114.193 8a.552.552 0 01-.551.552z"/><path d="M16.4 8.552A.552.552 0 0115.848 8a6.904 6.904 0 00-6.896-6.897.552.552 0 010-1.103 8.009 8.009 0 018 8 .552.552 0 01-.552.552z"/></g><defs><clipPath id="wclip0_1301_169"><path fill="#fff" transform="translate(.952)" d="M0 0h16v16H0z"/></clipPath></defs></svg></svg>